<?xml version="1.0" encoding="utf-8"?>
<!-- Generator: Adobe Illustrator 23.0.3, SVG Export Plug-In . SVG Version: 6.00 Build 0)  -->
<svg version="1.1" id="Layer_1" xmlns="http://www.w3.org/2000/svg" xmlns:xlink="http://www.w3.org/1999/xlink" x="0px" y="0px"
	 viewBox="0 0 40.48 94.96" style="enable-background:new 0 0 40.48 94.96;" xml:space="preserve">
<g id="zak_links">
	<path d="M20.78,43.83c1.72-3.06,4-6.17,2.62-6.89c-1.47-0.77-3.68,1.87-5.3,3.64c-2.68,2.94-6.77,4.72-8.11,3.45
		c-1.34-1.28,2.62-5.3,4.34-6.7s8.49-3.32,8.94-4.34c0.45-1.02-2.4-2.51-4.02-2.43c-2.49,0.13-4.07,4.54-4.85,4.15
		c-1.4-0.7-0.38-5.3-4.66-6.19c-1.52-0.32-3.19,3.06-4.66,2.68c-0.56-0.15-1.21-3.45-1.79-4.15c-0.57-0.7-2.22-1.28-2.81-1.34
		s-0.13-2.99-0.13-4.02c0-2.11-0.77-3.45,0.51-4.13s8.62,6.93,12.51,0.94c1.97-3.04-1.8-2.43-1.79-4.51
		c0.01-1.35,3.49,0.51,4.84-4.68s0.08-6.35,0.4-7.59c0.19-0.76,1.06-1.09,4.43-1.51s5.09,0.87,4.96,1.85c-0.29,2.2-5.49,4-4.91,9.38
		c0.4,3.77,8.68,7.06,8.68,7.06s4.2,1.63,10.37,5.77v70.57H0.65c0,0,1.75-19.02,6.09-27.83C11.36,57.62,19.06,46.89,20.78,43.83z"/>
</g>
</svg>
